<?xml version="1.0" standalone="no"?>
<!DOCTYPE svg PUBLIC "-//W3C//DTD SVG 20010904//EN"
 "http://www.w3.org/TR/2001/REC-SVG-20010904/DTD/svg10.dtd">
<svg version="1.0" xmlns="http://www.w3.org/2000/svg"
 width="700.000000pt" height="700.000000pt" viewBox="0 0 700.000000 700.000000"
 preserveAspectRatio="xMidYMid meet">
<metadata>
Created by potrace 1.11, written by Peter Selinger 2001-2013
</metadata>
<g transform="translate(0.000000,700.000000) scale(0.100000,-0.100000)"
fill="#000000" stroke="none">
<path d="M4410 6906 c-185 -49 -315 -230 -395 -546 -6 -23 -16 -71 -21 -100
-3 -19 -7 -42 -9 -50 -2 -8 -4 -20 -4 -26 -1 -9 -71 -25 -221 -50 -8 -2 -31
-6 -50 -10 -19 -3 -44 -8 -55 -10 -11 -1 -67 -12 -125 -22 -58 -11 -121 -23
-140 -26 -19 -3 -82 -14 -140 -25 -58 -10 -121 -22 -140 -25 -38 -7 -59 -10
-135 -26 -27 -5 -66 -12 -85 -15 -19 -3 -71 -12 -115 -20 -178 -33 -254 -47
-335 -61 -47 -9 -92 -17 -100 -19 -8 -2 -25 -4 -38 -4 l-23 -1 6 -137 c10
-191 12 -223 18 -229 2 -3 24 0 48 5 24 5 55 12 69 15 14 2 50 10 80 16 30 7
64 13 75 15 11 1 87 17 168 34 81 18 180 38 220 46 40 8 117 24 172 35 55 12
197 41 315 65 118 24 271 56 340 70 132 28 134 29 192 39 42 8 43 6 53 -89 3
-33 10 -85 15 -115 5 -30 12 -75 15 -100 3 -25 7 -54 9 -66 2 -12 7 -45 11
-75 26 -208 115 -554 162 -625 19 -29 10 -61 -39 -136 -73 -113 -167 -196
-207 -183 -27 8 -31 36 -26 166 3 63 7 170 10 239 20 493 24 640 14 645 -6 5
-166 -25 -220 -41 -11 -3 -20 -27 -29 -77 -20 -110 -25 -120 -39 -72 -55 195
-277 114 -406 -148 -64 -130 -85 -222 -92 -397 -11 -290 42 -497 156 -603 85
-80 177 -91 339 -40 77 24 87 25 142 13 37 -8 95 -11 151 -8 78 5 100 11 165
42 97 48 182 134 253 255 60 102 48 98 115 38 78 -68 212 -83 302 -34 28 16
82 57 120 92 78 72 74 72 219 38 110 -27 328 -24 428 5 221 63 390 206 496
417 67 135 85 216 86 390 0 126 -4 163 -23 233 -65 239 -224 433 -450 551
-200 103 -415 148 -708 146 l-151 -1 0 71 c1 282 -95 478 -257 527 -51 15
-138 17 -186 4z m82 -316 c16 -34 24 -75 34 -170 11 -106 11 -152 0 -156 -6
-2 -49 -10 -95 -18 -99 -15 -96 -18 -87 92 10 124 17 164 37 212 39 88 80 104
111 40z m670 -620 c139 -23 186 -36 280 -76 233 -97 377 -289 395 -523 10
-132 -38 -254 -132 -340 -82 -74 -252 -143 -385 -156 l-65 -6 63 34 c129 72
221 170 271 292 33 79 41 119 41 203 0 92 -15 149 -56 214 -93 148 -291 186
-446 87 -118 -76 -230 -259 -262 -429 -3 -19 -8 -46 -11 -60 -3 -14 -7 -83
-10 -155 -8 -221 -33 -314 -88 -334 -26 -10 -69 3 -92 29 -16 17 -15 21 8 62
102 175 171 572 182 1038 2 74 4 135 4 136 6 6 248 -7 303 -16z m-618 -143
c-5 -163 -15 -386 -18 -404 -2 -10 -7 -52 -11 -93 -17 -180 -62 -291 -94 -232
-11 20 -38 147 -45 212 -24 220 -38 410 -40 519 l-1 55 100 21 c55 11 103 17
106 12 3 -4 4 -45 3 -90z m726 -443 c14 -37 3 -88 -36 -169 -37 -75 -66 -113
-106 -139 -24 -15 -27 -15 -42 -1 -41 41 37 235 123 308 40 34 49 34 61 1z
m-1628 -445 c54 -105 -2 -388 -75 -377 -40 6 -60 61 -60 162 -1 194 80 322
135 215z"/>
<path d="M1275 5848 c-70 -7 -87 -10 -115 -20 -8 -3 -36 -13 -62 -22 -49 -18
-126 -72 -166 -115 -162 -179 -204 -498 -94 -720 15 -30 54 -82 87 -116 61
-61 82 -76 288 -209 170 -109 230 -179 255 -292 29 -137 -51 -396 -154 -497
-111 -110 -259 -108 -373 5 -70 68 -100 163 -71 219 17 30 31 23 95 -42 147
-149 238 -149 339 -1 79 115 90 209 36 318 -71 145 -260 251 -433 243 -218
-11 -364 -151 -434 -418 -34 -127 -38 -351 -9 -446 37 -121 98 -220 186 -303
84 -79 246 -158 365 -177 45 -7 167 -7 205 0 144 28 245 63 348 124 37 22 97
67 134 100 181 167 260 370 261 676 1 185 -25 312 -90 444 -78 159 -186 253
-466 409 -118 65 -167 104 -208 162 -32 47 -35 151 -4 192 43 58 124 73 178
32 60 -45 71 -88 52 -191 -30 -163 306 -293 402 -157 81 115 70 344 -24 526
-62 121 -177 225 -279 253 -51 14 -58 16 -94 21 -68 10 -86 10 -155 2z"/>
<path d="M2150 5850 c-64 -14 -225 -43 -239 -43 -10 0 -12 -20 -6 -101 4 -56
9 -114 11 -131 2 -16 6 -64 9 -105 3 -41 7 -95 10 -120 2 -25 7 -76 10 -115 3
-38 8 -90 11 -115 2 -25 6 -72 9 -105 13 -150 15 -173 20 -220 3 -27 7 -77 10
-110 5 -79 15 -190 20 -240 3 -22 7 -77 10 -123 4 -46 8 -92 10 -103 2 -10 7
-63 10 -116 3 -54 8 -105 10 -113 2 -8 7 -60 10 -115 4 -55 8 -111 10 -125 3
-14 7 -61 10 -105 6 -79 13 -137 19 -142 2 -2 29 5 62 15 l59 18 1 74 c2 124
64 238 166 306 l43 29 -7 50 c-4 28 -10 68 -13 90 -3 22 -8 54 -11 70 -6 32
-7 44 -19 142 l-7 61 43 22 c86 44 149 60 239 60 109 0 121 -11 150 -130 41
-172 63 -237 111 -337 40 -81 66 -118 122 -176 158 -161 354 -203 667 -142 42
8 221 62 300 90 58 21 658 268 765 315 273 120 760 198 963 155 157 -34 234
-114 233 -243 -1 -61 -1 -64 -20 -132 -32 -112 -143 -302 -236 -405 -59 -65
-95 -125 -90 -150 2 -11 4 -23 4 -27 3 -21 58 -60 106 -74 213 -61 498 36 655
223 84 100 140 227 159 363 14 93 6 294 -13 364 -53 192 -177 290 -431 341
-84 17 -331 12 -470 -9 -16 -3 -52 -8 -80 -11 -27 -4 -57 -8 -65 -10 -8 -2
-28 -7 -45 -10 -29 -5 -46 -8 -110 -21 -141 -28 -480 -118 -675 -179 -47 -15
-112 -35 -145 -44 -33 -10 -173 -52 -310 -94 -350 -106 -412 -120 -540 -119
-113 0 -189 16 -272 57 -117 58 -191 160 -243 335 -87 297 -125 364 -232 410
-85 37 -173 37 -355 1 -97 -19 -82 21 66 173 190 194 241 226 277 171 8 -13
13 -29 10 -34 -13 -20 -17 -127 -7 -153 15 -40 49 -44 109 -14 126 64 217 215
227 378 8 127 -43 229 -121 244 -148 28 -461 -155 -743 -434 -57 -56 -105
-101 -106 -100 -2 2 -6 46 -10 98 -10 150 -23 315 -30 390 -2 25 -7 88 -11
140 -4 52 -8 106 -9 120 -1 14 -3 42 -3 63 -2 39 -4 40 -62 27z"/>
<path d="M5285 4103 c-72 -10 -186 -38 -265 -65 -101 -35 -294 -130 -380 -187
-34 -23 -64 -41 -66 -41 -7 0 -232 -169 -274 -205 -89 -78 -163 -148 -261
-247 l-107 -108 -12 33 c-48 132 -95 193 -176 233 -99 49 -216 31 -366 -55
-41 -23 -88 -56 -106 -72 -136 -127 -213 -409 -143 -523 40 -64 102 -81 218
-62 111 20 169 61 180 129 5 30 -28 135 -53 172 -18 25 -18 70 0 88 8 8 28 20
45 27 26 10 38 10 68 -1 157 -60 82 -384 -209 -901 -7 -13 -32 -48 -55 -78
-88 -118 -160 -162 -216 -134 -50 27 -66 67 -60 153 7 108 7 400 -1 503 -29
392 -159 522 -348 345 -52 -49 -99 -143 -118 -233 -21 -103 -16 -302 10 -434
7 -30 14 -68 16 -85 9 -51 44 -186 70 -267 22 -66 24 -83 14 -117 -14 -53 -52
-96 -114 -131 l-51 -29 -64 -173 c-35 -95 -72 -194 -82 -220 -10 -26 -15 -49
-11 -52 13 -8 235 70 297 105 124 68 242 175 279 253 l17 37 47 -42 c26 -22
74 -55 107 -72 81 -42 184 -44 266 -7 166 75 324 272 479 595 26 55 53 117 61
138 10 30 20 39 49 47 79 22 120 4 120 -52 0 -19 -31 -92 -75 -182 -110 -220
-128 -324 -72 -408 91 -134 388 -117 703 42 158 80 274 171 362 285 21 27 25
28 45 15 44 -28 153 -78 195 -89 40 -11 138 -16 172 -8 70 16 91 23 135 45 28
13 70 38 95 55 57 39 181 166 240 245 42 57 79 79 81 50 0 -7 2 -30 3 -50 4
-49 -27 -139 -67 -197 -65 -95 -213 -214 -357 -286 -182 -91 -522 -199 -760
-240 -126 -22 -334 -55 -380 -60 -30 -3 -66 -8 -80 -10 -24 -4 -85 -10 -200
-20 -30 -3 -75 -8 -100 -10 -79 -8 -383 -24 -590 -30 -267 -9 -407 -31 -616
-101 -445 -147 -782 -411 -897 -704 -25 -63 -31 -92 -33 -180 -5 -159 30 -266
116 -350 85 -83 235 -115 382 -81 236 55 420 222 508 461 61 165 114 252 209
346 104 102 218 158 342 169 28 2 115 7 193 10 234 10 275 12 441 30 22 2 67
7 100 10 53 5 151 18 225 31 14 2 45 6 70 10 67 8 74 10 210 38 69 14 135 28
146 30 60 12 324 90 434 130 613 218 1036 571 1187 991 153 426 -52 842 -375
759 -163 -42 -314 -199 -462 -479 -84 -160 -135 -216 -219 -241 -42 -12 -102
-9 -132 6 -20 11 -20 12 4 53 133 227 93 676 -77 874 -20 23 -61 54 -91 68
-74 37 -148 31 -243 -20 -293 -155 -346 -506 -151 -1001 12 -31 11 -33 -42
-82 -111 -102 -187 -152 -231 -152 -83 0 -65 126 61 442 36 92 33 112 -29 157
-54 39 -179 80 -324 105 -16 3 -31 7 -33 10 -5 4 237 298 322 391 166 182 362
360 480 436 134 86 233 122 275 99 22 -12 22 -12 -7 -30 -17 -10 -40 -31 -52
-46 -19 -25 -22 -37 -17 -79 12 -107 97 -228 182 -261 194 -74 485 212 488
481 1 138 -71 218 -226 250 -56 12 -213 17 -273 8z m-257 -993 c27 -30 38 -76
37 -155 -3 -150 -67 -306 -127 -313 -40 -5 -61 42 -64 144 -4 127 41 283 94
324 31 25 37 25 60 0z"/>
<path d="M2568 3936 c-154 -45 -267 -188 -270 -343 -1 -58 11 -131 22 -138 9
-6 36 29 90 116 89 144 104 160 161 161 55 2 109 -82 96 -149 -7 -37 17 -27
42 17 37 66 41 93 20 119 -24 30 -24 63 0 85 28 26 63 17 81 -21 10 -21 25
-34 43 -38 47 -11 57 -60 32 -170 -3 -16 19 19 50 78 l56 108 -20 28 c-89 125
-261 188 -403 147z"/>
<path d="M2536 3668 c-21 -30 -20 -66 4 -105 21 -34 67 -54 79 -34 15 23 12
113 -4 137 -20 31 -59 31 -79 2z"/>
<path d="M2804 3673 c-26 -84 -77 -154 -135 -183 -20 -11 -40 -29 -44 -40 -4
-11 -23 -31 -43 -45 -63 -43 -126 -28 -152 35 l-12 30 -33 -42 c-24 -30 -31
-46 -25 -58 18 -33 103 -103 158 -128 48 -23 71 -27 147 -27 82 0 97 3 156 32
101 50 183 151 204 251 10 46 10 132 0 162 -7 22 -12 16 -50 -60 -51 -101 -86
-140 -118 -132 -44 11 -52 47 -33 148 12 64 12 74 -1 74 -7 0 -16 -8 -19 -17z"/>
<path d="M2478 3605 c-3 -6 -6 -36 -7 -68 -4 -97 42 -139 99 -90 38 31 38 38
-1 39 -40 2 -58 21 -73 80 -7 26 -15 44 -18 39z"/>
<path d="M1835 3384 c-33 -7 -71 -17 -85 -21 -62 -20 -159 -83 -231 -150 -77
-73 -77 -73 -117 -65 -70 16 -194 9 -231 -13 -92 -54 -95 -103 -25 -345 26
-89 73 -282 80 -325 3 -22 8 -43 10 -46 3 -6 14 -57 39 -194 3 -16 8 -46 11
-65 2 -19 9 -57 14 -85 5 -27 12 -77 15 -110 4 -32 8 -62 10 -65 6 -10 18
-206 17 -279 -2 -71 -3 -75 -51 -140 -129 -174 -165 -329 -107 -457 64 -139
248 -217 387 -164 149 56 367 215 494 361 88 100 101 117 181 244 43 68 117
234 150 333 73 227 101 459 80 665 -8 75 -8 77 -31 161 -42 154 -140 265 -234
266 l-25 0 30 33 c72 76 98 166 74 253 -24 84 -129 175 -235 203 -64 17 -155
19 -220 5z m83 -301 c56 -49 47 -108 -32 -207 -49 -61 -169 -159 -177 -144 -7
13 -59 192 -59 203 0 10 92 105 124 128 24 17 88 45 106 47 3 0 20 -12 38 -27z
m114 -550 c60 -72 70 -288 21 -468 -38 -139 -130 -247 -218 -257 -27 -3 -30 0
-31 27 -1 17 -5 138 -9 270 -4 132 -9 242 -10 244 -7 6 65 112 93 137 30 28
99 63 123 64 9 0 23 -8 31 -17z"/>
</g>
</svg>
